<mxfile host="app.diagrams.net" modified="2023-06-12T09:20:35.265Z" agent="Mozilla/5.0 (Windows NT 10.0; Win64; x64) AppleWebKit/537.36 (KHTML, like Gecko) Chrome/114.0.0.0 Safari/537.36" version="21.3.2" etag="3B_Cr7sLIV-VLB-Fbfi8" type="github">
  <diagram name="Page-1" id="8xlGtXCyt6550O3F5rya">
    <mxGraphModel>
      <root>
        <mxCell id="0" />
        <mxCell id="1" parent="0" />
      </root>
    </mxGraphModel>
  </diagram>
</mxfile>
